<?xml version="1.0" encoding="utf-8"?>
<!-- Generator: Adobe Illustrator 28.2.0, SVG Export Plug-In . SVG Version: 6.00 Build 0)  -->
<svg version="1.1" id="Layer_1" xmlns="http://www.w3.org/2000/svg" xmlns:xlink="http://www.w3.org/1999/xlink" x="0px" y="0px"
	 viewBox="0 0 2515.3 1770.7" style="enable-background:new 0 0 2515.3 1770.7;" xml:space="preserve">
<style type="text/css">
	.st0{fill:#FFFFFF;}
	.st1{font-family:'Champagne&Limousines-Bold';}
	.st2{font-size:650.0074px;}
	.st3{font-family:'Champagne&Limousines';}
	.st4{font-size:564.382px;}
</style>
<g>
	<text transform="matrix(1 0 0 1 508.777 855.5441)" class="st0 st1 st2">SCRAP</text>
	<text transform="matrix(1 0 0 1 633.6705 1359.942)" class="st0 st3 st4">FIGURES</text>
	<path class="st0" d="M532.5,962l-28.7-15c0-13.9-5.6-26.4-14.7-35.5c-9.1-9.1-21.6-14.7-35.5-14.7h-11.1V785.3
		c0-8.1-6.5-14.7-14.6-14.9c-3.9-0.1-7-3-7-6.8V753c0-3.8,2.4-7.1,5.9-8.7c3.6-1.7,6.7-4.4,8.7-7.6c2.2-3.3,3.3-7.2,3.3-11.3
		c0-4.3-1.3-8.5-3.7-11.9c-2.4-3.4-5.7-6.1-9.8-7.6c-1.9-0.7-3.2-2.5-3.2-4.6v-17.6c0-1.9,1.1-3.7,2.9-4.5l4.7-2.1
		c6.7-2.9,10.5-10.3,8.7-17.7c-1.1-4.4-4.2-8-8.2-10.1l-7.6-4.1c-1.4-0.8-2.4-2.2-2.6-3.8l-1.3-14.3c-0.1-1.8,0.7-3.6,2.2-4.6
		l14.9-9.5v-22.3c0-21.6-17.5-39-39-39c0-10.5-3.1-16.9-6.2-20.6c-3.1-3.7-6.2-4.8-6.2-4.8v-73.3c0-2.6-2.1-4.8-4.7-4.8
		c-3.6,0-6.2-2.9-6.2-6.2c0-0.6,0.1-1.2,0.2-1.7l12.7-44.3c0.8-2.7,0.8-5.6,0-8.3l-10.1-37.6c-2.9-10.7-12.1-18.4-23.1-19.4
		l-29.4-2.7l-29.4,2.7c-11,1-20.2,8.7-23.1,19.4L261,387.8c-0.7,2.7-0.7,5.6,0,8.3l12.7,44.3c1.1,4-1.9,7.9-6,7.9
		c-2.6,0-4.7,2.1-4.7,4.8v73.3c0,0-12.4,4.3-12.4,25.4c-10.8,0-20.6,4.3-27.6,11.4c-7.1,7.1-11.4,16.8-11.4,27.6v22.3l14.9,9.5
		c1.5,1,2.4,2.8,2.2,4.6l-1.3,14.3c-0.2,1.6-1.1,3-2.6,3.8l-7.9,4.2c-2.7,1.4-5,3.5-6.5,6.2c-2.9,5.4-2.4,11.4,0.6,15.9
		c1.6,2.5,3.8,4.4,6.6,5.6l4.7,2.1c1.8,0.8,2.9,2.5,2.9,4.5v17.6c0,2.1-1.3,3.9-3.2,4.6c-4.1,1.5-7.4,4.2-9.8,7.6
		c-2.4,3.4-3.7,7.5-3.7,11.9c0,4.1,1.2,8,3.3,11.3c2.1,3.2,5.1,5.9,8.7,7.6c3.5,1.6,5.9,4.9,5.9,8.7v10.7c0,3.8-3.1,6.8-6.8,6.8
		c-4.1,0-7.8,1.7-10.5,4.3c-2.7,2.7-4.3,6.4-4.3,10.5v111.5h-11.1c-27.7,0-50.2,22.4-50.2,50.2l-28.7,15c-5.6,3-9.1,8.8-9.1,15.1
		v32.1c0,6,3.2,11.5,8.3,14.6l35.1,21v31.6h-2.5c-7.2,0-13,5.8-13,13v66.9c0,7.2,5.8,13,13,13h51.4v1.2c-8.7,3.4-13.6,7.2-13.6,11.2
		s4.9,7.8,13.6,11.2v3.5c-8.7,3.4-13.6,7.2-13.6,11.2s4.9,7.8,13.6,11.2v3.5c-8.7,3.4-13.6,7.2-13.6,11.2s4.9,7.8,13.6,11.2v3.5
		c-8.7,3.4-13.6,7.2-13.6,11.2s4.9,7.8,13.6,11.2v3.5c-8.7,3.4-13.6,7.2-13.6,11.2s4.9,7.8,13.6,11.2v3.5
		c-8.7,3.4-13.6,7.2-13.6,11.2s4.9,7.8,13.6,11.2v3.5c-8.7,3.4-13.6,7.2-13.6,11.2c0,4.2,5.3,8.1,14.6,11.6c1,3,2.6,5.7,4.7,7.9
		v37.2c0,38.1,31,69,69,69h63.5c6.2,0,11.1-5,11.1-11.1c0-6.2-5-11.1-11.1-11.1h-63.5c-25.8,0-46.7-21-46.7-46.7v-30.7h38.9
		c0,0-2.3,19.7,35.3,24v28c0,5.1,4.2,9.3,9.3,9.3h28.5c5.1,0,9.3-4.2,9.3-9.3v-28c37.6-4.3,35.3-24,35.3-24h46.1
		c9.3,0,17.1-6.1,19.8-14.4c9.3-3.5,14.6-7.4,14.6-11.6c0-4-4.9-7.8-13.6-11.2v-3.5c8.7-3.4,13.6-7.2,13.6-11.2s-4.9-7.8-13.6-11.2
		v-3.5c8.7-3.4,13.6-7.2,13.6-11.2s-4.9-7.8-13.6-11.2v-3.5c8.7-3.4,13.6-7.2,13.6-11.2s-4.9-7.8-13.6-11.2v-3.5
		c8.7-3.4,13.6-7.2,13.6-11.2s-4.9-7.8-13.6-11.2v-3.5c8.7-3.4,13.6-7.2,13.6-11.2s-4.9-7.8-13.6-11.2v-3.5
		c8.7-3.4,13.6-7.2,13.6-11.2s-4.9-7.8-13.6-11.2v-1.2h51.4c7.2,0,13-5.8,13-13v-66.9c0-7.2-5.8-13-13-13h-2.5v-31.6l35.1-21
		c5.1-3.1,8.3-8.6,8.3-14.6v-32.1C541.7,970.8,538.1,965,532.5,962z"/>
</g>
</svg>
