<?xml version="1.0" encoding="utf-8"?>
<!-- Generator: Adobe Illustrator 28.2.0, SVG Export Plug-In . SVG Version: 6.00 Build 0)  -->
<svg version="1.1" id="Layer_1" xmlns="http://www.w3.org/2000/svg" xmlns:xlink="http://www.w3.org/1999/xlink" x="0px" y="0px"
	 viewBox="0 0 5020 1770.7" style="enable-background:new 0 0 5020 1770.7;" xml:space="preserve">
<style type="text/css">
	.st0{fill-rule:evenodd;clip-rule:evenodd;fill:#FFFFFF;}
	.st1{fill:#FFFFFF;}
	.st2{font-family:'BookAntiqua';}
	.st3{font-size:606.3662px;}
</style>
<g>
	<path class="st0" d="M3009.4,636.5c-14.3-34.2-31.9-66.7-52.6-97l85.7-85.7l-142-142l-85.7,85.7c-60.4-41.3-129.7-70.7-204.4-84.7
		V191.7h-200.8v121.1c-74.7,14-144,43.4-204.4,84.7l-85.7-85.7l-142,142l85.7,85.7c-20.7,30.3-38.4,62.7-52.7,97
		c-463.7,39.9-789.4,133.6-789.4,242.8c0,16.1,7.1,31.9,20.7,47.2h277.8c-72.7-24.9-113.6-52.9-113.6-82.5
		c0-71.6,238.7-133.7,588.8-165c-6.8,21.1-12.3,42.7-16.4,64.9h-121.2v182.7h310.9c-6.3-26.4-9.7-53.9-9.7-82.2
		c0-194.1,157.4-351.5,351.4-351.5c194.1,0,351.5,157.4,351.5,351.5c0,28.3-3.4,55.9-9.7,82.2h310.9V743.9h-121.2
		c-4.2-22.1-9.7-43.8-16.4-64.9c350.2,31.3,588.8,93.4,588.8,165c0,29.6-40.9,57.6-113.6,82.5h277.8c13.6-15.3,20.7-31.1,20.7-47.2
		C3798.8,770.1,3473.2,676.4,3009.4,636.5z M2510,522.8c-177.6,0-321.6,143.9-321.5,321.5c0,28.4,3.7,56,10.6,82.2h64.8
		c-8.6-25.8-13.3-53.5-13.3-82.2c0-136.6,105.5-248.5,239.5-258.7l0.1,0c2.2-0.2,4.3-0.3,6.5-0.4l0.1,0c2.2-0.1,4.4-0.2,6.6-0.2h0
		c2.2-0.1,4.4-0.1,6.7-0.1c2.3,0,4.5,0,6.7,0.1h0c2.2,0.1,4.4,0.1,6.6,0.2l0.1,0c2.2,0.1,4.4,0.3,6.5,0.4l0.1,0
		c134,10.2,239.5,122.1,239.5,258.7c0,28.7-4.7,56.4-13.3,82.2h64.8c6.9-26.2,10.6-53.8,10.6-82.2
		C2831.5,666.8,2687.6,522.8,2510,522.8z"/>
	<text transform="matrix(1 0 0 1 153.8169 1390.3993)" class="st1 st2 st3">SCRAP FIGURES</text>
</g>
</svg>
